<?xml version="1.0" encoding="UTF-8" standalone="no"?>
<!-- Created with Inkscape (http://www.inkscape.org/) -->

<svg
   xmlns:dc="http://purl.org/dc/elements/1.1/"
   xmlns:cc="http://creativecommons.org/ns#"
   xmlns:rdf="http://www.w3.org/1999/02/22-rdf-syntax-ns#"
   xmlns:svg="http://www.w3.org/2000/svg"
   xmlns="http://www.w3.org/2000/svg"
   xmlns:sodipodi="http://sodipodi.sourceforge.net/DTD/sodipodi-0.dtd"
   xmlns:inkscape="http://www.inkscape.org/namespaces/inkscape"
   width="377"
   height="377"
   viewBox="0 0 377.00001 377.00001"
   id="svg3341"
   version="1.1"
   inkscape:version="0.91 r13725"
   sodipodi:docname="phones-symbol.svg">
  <title
     id="title3382">phone</title>
  <defs
     id="defs3343" />
  <sodipodi:namedview
     id="base"
     pagecolor="#ffffff"
     bordercolor="#666666"
     borderopacity="1.0"
     inkscape:pageopacity="0.0"
     inkscape:pageshadow="2"
     inkscape:zoom="0.7546875"
     inkscape:cx="179.55487"
     inkscape:cy="201.98758"
     inkscape:document-units="px"
     inkscape:current-layer="layer1"
     showgrid="false"
     units="px"
     inkscape:window-width="1366"
     inkscape:window-height="705"
     inkscape:window-x="0"
     inkscape:window-y="30"
     inkscape:window-maximized="1" />
  <metadata
     id="metadata3346">
    <rdf:RDF>
      <cc:Work
         rdf:about="">
        <dc:format>image/svg+xml</dc:format>
        <dc:type
           rdf:resource="http://purl.org/dc/dcmitype/StillImage" />
        <dc:title>phone</dc:title>
        <cc:license
           rdf:resource="http://creativecommons.org/licenses/by/3.0/" />
        <dc:creator>
          <cc:Agent>
            <dc:title>denny rakhmad widi ashari</dc:title>
          </cc:Agent>
        </dc:creator>
        <dc:source>https://klikada.com</dc:source>
        <dc:language>Indonesian</dc:language>
        <dc:subject>
          <rdf:Bag>
            <rdf:li>phone icon svg</rdf:li>
          </rdf:Bag>
        </dc:subject>
      </cc:Work>
      <cc:License
         rdf:about="http://creativecommons.org/licenses/by/3.0/">
        <cc:permits
           rdf:resource="http://creativecommons.org/ns#Reproduction" />
        <cc:permits
           rdf:resource="http://creativecommons.org/ns#Distribution" />
        <cc:requires
           rdf:resource="http://creativecommons.org/ns#Notice" />
        <cc:requires
           rdf:resource="http://creativecommons.org/ns#Attribution" />
        <cc:permits
           rdf:resource="http://creativecommons.org/ns#DerivativeWorks" />
      </cc:License>
    </rdf:RDF>
  </metadata>
  <g
     inkscape:label="Layer 1"
     inkscape:groupmode="layer"
     id="layer1"
     transform="translate(0,-675.36222)">
    <path
       style="fill:#d3d3d3"
       id="path6"
       d="m 189.48241,675.7167 c -103.856477,0 -188.4881736,84.6399 -188.4881736,188.48817 0,103.84826 84.6399056,188.48813 188.4881736,188.48813 103.84826,0 188.48817,-84.63987 188.48817,-188.48813 0,-103.84827 -84.63991,-188.48817 -188.48817,-188.48817 z"
       inkscape:connector-curvature="0" />
    <path
       id="path8"
       d="m 356.60333,864.19994 c 0,92.29863 -74.82476,167.12916 -167.12913,167.12916 -92.304372,0 -167.129135,-74.82479 -167.129135,-167.12916 0,-92.30437 74.824763,-167.12913 167.129135,-167.12913 92.30437,0 167.12913,74.82476 167.12913,167.12913 z"
       inkscape:connector-curvature="0"
       style="fill:#00bfff" />
    <g
       id="g3473"
       transform="matrix(0.48802085,0,0,0.48802085,55.086986,718.83965)">
      <g
         id="g3433">
        <path
           id="path3435"
           d="M 588.074,199.311 C 576.12,186.934 562.403,182.571 552.786,181.086 544.53,118.726 536.847,86.258 276.798,86.258 16.75,86.258 0,125.46 0,193.498 l 0,11.605 c 0,18.411 14.925,33.336 33.336,33.336 l 83.427,0 c 18.411,0 33.336,-14.925 33.336,-33.336 l 0,-11.605 c 0,-52.705 80.699,-54.319 126.698,-54.319 45.998,0 126.697,1.614 126.697,54.319 l 0,11.605 c 0,18.411 14.926,33.336 33.337,33.336 l 83.427,0 c 18.411,0 33.337,-14.925 33.337,-33.336 l 0,-4.464 c 6.146,1.51 13.907,4.794 20.776,11.905 16.747,17.347 22.305,50.861 16.068,96.927 -10.815,79.816 -42.181,108.325 -75.585,117.813 l 0,-13.886 c 0,-14.097 -3.524,-28.05 -10.668,-40.242 C 470.85,316.103 423.512,265.479 363.363,220.855 l 0,-33.717 c 0,-2.619 -2.143,-4.762 -4.762,-4.762 l -49.481,0 c -2.667,0 -4.762,2.143 -4.762,4.762 l 0,33.527 -56.481,0 0,-33.527 c 0,-2.619 -2.143,-4.762 -4.762,-4.762 l -49.529,0 c -2.62,0 -4.762,2.143 -4.762,4.762 l 0,33.527 C 128.581,265.384 81.195,316.007 47.81,373.156 40.666,385.348 37.142,399.302 37.142,413.398 l 0,31.384 c 0,44.72 36.242,80.961 80.961,80.961 l 315.793,0 c 44.018,0 79.744,-35.135 80.855,-78.884 53.54,-12.54 83.912,-56.224 94.562,-134.831 7.154,-52.796 0.005,-90.718 -21.239,-112.717 z m -229.347,214.92 -31.774,-11.313 c 3.371,-6.792 5.314,-14.421 5.314,-22.522 0,-28.003 -22.716,-50.72 -50.767,-50.72 -28.003,0 -50.767,22.717 -50.767,50.72 0,28.051 22.764,50.768 50.767,50.768 10.371,0 20.003,-3.121 28.037,-8.453 l 17.429,28.648 c -13.129,8.43 -28.707,13.379 -45.465,13.379 -46.576,0 -84.294,-37.766 -84.294,-84.341 0,-46.529 37.718,-84.294 84.294,-84.294 46.576,0 84.342,37.766 84.342,84.294 -0.001,12.04 -2.568,23.47 -7.116,33.834 z"
           inkscape:connector-curvature="0" />
      </g>
      <g
         id="g3437" />
      <g
         id="g3439" />
      <g
         id="g3441" />
      <g
         id="g3443" />
      <g
         id="g3445" />
      <g
         id="g3447" />
      <g
         id="g3449" />
      <g
         id="g3451" />
      <g
         id="g3453" />
      <g
         id="g3455" />
      <g
         id="g3457" />
      <g
         id="g3459" />
      <g
         id="g3461" />
      <g
         id="g3463" />
      <g
         id="g3465" />
    </g>
  </g>
</svg>
